<svg width="121" height="110" viewBox="0 0 121 110" fill="none" xmlns="http://www.w3.org/2000/svg">
<g clip-path="url(#clip0_163_9)">
<path d="M18.7327 12.6042C17.406 12.6042 16.1337 13.0871 15.1956 13.9467C14.2575 14.8062 13.7305 15.972 13.7305 17.1876V17.1876V92.8126C13.7305 94.0282 14.2575 95.1939 15.1956 96.0535C16.1337 96.913 17.406 97.3959 18.7327 97.3959H101.369C102.695 97.3959 103.968 96.913 104.906 96.0535C105.844 95.1939 106.371 94.0282 106.371 92.8126V17.1876C106.371 15.972 105.844 14.8062 104.906 13.9467C103.968 13.0871 102.695 12.6042 101.369 12.6042H18.7327Z" stroke="#53B38D" stroke-linecap="round" stroke-linejoin="round"/>
<path d="M78.3586 27.7749C80.5698 27.7749 82.7313 28.3757 84.5698 29.5013C86.4083 30.6269 87.8413 32.2267 88.6874 34.0985C89.5336 35.9703 89.755 38.03 89.3236 40.0171C88.8923 42.0042 87.8275 43.8295 86.2639 45.2621C84.7004 46.6947 82.7084 47.6703 80.5397 48.0656C78.371 48.4608 76.1231 48.258 74.0802 47.4826C72.0374 46.7073 70.2913 45.3944 69.0628 43.7098C67.8344 42.0252 67.1787 40.0447 67.1787 38.0187C67.1787 35.3018 68.3566 32.6963 70.4532 30.7752C72.5498 28.8542 75.3935 27.7749 78.3586 27.7749V27.7749ZM50.0462 48.1249L68.1041 64.6707C68.2671 64.8232 68.4617 64.9443 68.6764 65.027C68.8911 65.1096 69.1217 65.1522 69.3546 65.1522C69.5876 65.1522 69.8181 65.1096 70.0329 65.027C70.2476 64.9443 70.4422 64.8232 70.6052 64.6707L74.0567 61.5082C74.3893 61.206 74.8388 61.0363 75.3072 61.0363C75.7757 61.0363 76.2252 61.206 76.5578 61.5082L96.0913 79.4062C96.3414 79.6306 96.5122 79.9184 96.5819 80.2327C96.6516 80.547 96.6169 80.8731 96.4823 81.1691C96.3477 81.4652 96.1194 81.7174 95.8268 81.8933C95.5342 82.0693 95.1907 82.1608 94.8408 82.1562H25.2354C24.9143 82.1585 24.5987 82.0799 24.3231 81.9289C24.0475 81.778 23.8226 81.5605 23.6728 81.3002C23.523 81.04 23.4543 80.747 23.474 80.4534C23.4938 80.1598 23.6013 79.8767 23.7847 79.6353L47.5451 48.4228C47.6852 48.2494 47.8621 48.1037 48.0651 47.9944C48.268 47.8851 48.493 47.8144 48.7265 47.7866C48.96 47.7587 49.1972 47.7744 49.424 47.8325C49.6508 47.8906 49.8624 47.9901 50.0462 48.1249V48.1249Z" stroke="#53B38D" stroke-linecap="round" stroke-linejoin="round"/>
<path d="M105.889 28.125C109.688 28.125 113.331 26.7422 116.018 24.2808C118.704 21.8194 120.213 18.481 120.213 15C120.213 11.519 118.704 8.18064 116.018 5.71922C113.331 3.25781 109.688 1.875 105.889 1.875C102.09 1.875 98.4463 3.25781 95.76 5.71922C93.0736 8.18064 91.5645 11.519 91.5645 15C91.5645 18.481 93.0736 21.8194 95.76 24.2808C98.4463 26.7422 102.09 28.125 105.889 28.125ZM104.661 16.125H99.9545C99.6288 16.125 99.3165 16.0065 99.0863 15.7955C98.856 15.5845 98.7267 15.2984 98.7267 15C98.7267 14.7016 98.856 14.4155 99.0863 14.2045C99.3165 13.9935 99.6288 13.875 99.9545 13.875H104.661V9.5625C104.661 9.26413 104.79 8.97798 105.021 8.767C105.251 8.55603 105.563 8.4375 105.889 8.4375C106.215 8.4375 106.527 8.55603 106.757 8.767C106.987 8.97798 107.117 9.26413 107.117 9.5625V13.875H111.823C112.149 13.875 112.461 13.9935 112.691 14.2045C112.922 14.4155 113.051 14.7016 113.051 15C113.051 15.2984 112.922 15.5845 112.691 15.7955C112.461 16.0065 112.149 16.125 111.823 16.125H107.117V20.4375C107.117 20.7359 106.987 21.022 106.757 21.233C106.527 21.444 106.215 21.5625 105.889 21.5625C105.563 21.5625 105.251 21.444 105.021 21.233C104.79 21.022 104.661 20.7359 104.661 20.4375V16.125Z" fill="#53B38D"/>
</g>
<defs>
<clipPath id="clip0_163_9">
<rect width="120.052" height="110" fill="white" transform="translate(0.0244141)"/>
</clipPath>
</defs>
</svg>
