<svg width="107" height="40" viewBox="0 0 107 40" fill="none" xmlns="http://www.w3.org/2000/svg">
<path d="M11.1452 12V9.00005C11.1452 8.31205 11.2647 7.66605 11.5037 7.06205C11.7427 6.44805 12.0737 5.91605 12.4948 5.46805C12.9066 5.01005 13.3957 4.65005 13.9602 4.39005C14.5155 4.13005 15.1094 4.00005 15.7419 4.00005C16.2586 4.00005 16.7514 4.08805 17.2221 4.26605C17.6928 4.44405 18.1231 4.69405 18.5147 5.01605C19.3008 4.35688 20.2655 3.9996 21.2581 4.00005C22.164 3.99566 23.0508 4.28444 23.8055 4.82968C24.5601 5.37493 25.1487 6.15199 25.4963 7.06205C25.7353 7.66605 25.8548 8.31205 25.8548 9.00005V12H27.6935C28.1812 12 28.6489 12.2108 28.9937 12.5858C29.3385 12.9609 29.5323 13.4696 29.5323 14V30C29.5323 30.834 29.3888 31.6141 29.102 32.3441C28.8152 33.0621 28.4217 33.698 27.9234 34.25C27.5924 34.602 27.2302 34.906 26.8312 35.162L25.7463 34.6501L24.8362 34.208L24.4464 33.974L24.0382 33.6441L23.5951 33.2201L23.1023 32.648C22.4999 31.9226 22.1699 30.9776 22.1774 30V12H24.0161V9.00005C24.0161 8.58405 23.9444 8.19205 23.801 7.82805C23.5929 7.2824 23.2396 6.81685 22.7865 6.49114C22.3334 6.16542 21.8011 5.99441 21.2581 6.00005C20.6936 6.00005 20.1861 6.17205 19.7356 6.51605C20.1319 7.27288 20.3398 8.12908 20.3387 9.00005V30C20.3309 31.4782 20.8336 32.9057 21.7472 34L22.3153 34.66L22.8816 35.2001L23.4498 35.66L24.0161 36H12.9839C11.5246 35.9997 10.125 35.3705 9.09132 34.25C8.58679 33.7025 8.18247 33.0557 7.89983 32.3441C7.60935 31.6033 7.46226 30.8054 7.46774 30V14C7.46774 13.4696 7.66146 12.9609 8.00628 12.5858C8.35111 12.2108 8.81879 12 9.30645 12H11.1452ZM12.9839 12H18.5V9.00005C18.5 8.58405 18.4283 8.19205 18.2849 7.82805C18.0767 7.2824 17.7235 6.81685 17.2704 6.49114C16.8173 6.16542 16.285 5.99441 15.7419 6.00005C15.3595 6.00005 14.9991 6.07805 14.6644 6.23405C14.1628 6.46044 13.7348 6.84471 13.4353 7.33755C13.1359 7.8304 12.9787 8.40933 12.9839 9.00005V12Z" fill="#53B38D"/>
<path d="M38.8871 12.44H41.2271V24.76H48.4071V27H38.8871V12.44ZM50.3248 22.68C50.3248 21.8267 50.5248 21.06 50.9248 20.38C51.3248 19.6867 51.8848 19.1467 52.6048 18.76C53.3381 18.36 54.1648 18.16 55.0848 18.16C56.0314 18.16 56.8514 18.36 57.5448 18.76C58.2514 19.1467 58.7981 19.6867 59.1848 20.38C59.5714 21.06 59.7648 21.8267 59.7648 22.68C59.7648 23.5333 59.5714 24.3067 59.1848 25C58.7981 25.68 58.2514 26.22 57.5448 26.62C56.8514 27.02 56.0248 27.22 55.0648 27.22C54.1581 27.22 53.3448 27.04 52.6248 26.68C51.9048 26.3067 51.3381 25.78 50.9248 25.1C50.5248 24.42 50.3248 23.6133 50.3248 22.68ZM52.5848 22.7C52.5848 23.1933 52.6914 23.6467 52.9048 24.06C53.1181 24.46 53.4114 24.78 53.7848 25.02C54.1581 25.26 54.5714 25.38 55.0248 25.38C55.5181 25.38 55.9448 25.26 56.3048 25.02C56.6781 24.78 56.9648 24.46 57.1648 24.06C57.3781 23.6467 57.4848 23.1933 57.4848 22.7C57.4848 22.1933 57.3781 21.74 57.1648 21.34C56.9648 20.9267 56.6781 20.6 56.3048 20.36C55.9448 20.12 55.5181 20 55.0248 20C54.5581 20 54.1381 20.1267 53.7648 20.38C53.4048 20.62 53.1181 20.94 52.9048 21.34C52.6914 21.74 52.5848 22.1933 52.5848 22.7ZM62.4185 31.08L61.1185 29.68C61.4919 29.3733 61.7852 28.9933 61.9985 28.54C62.2252 28.0867 62.3385 27.5467 62.3385 26.92V18.54H64.5785V27.02C64.5785 28.0067 64.4119 28.8267 64.0785 29.48C63.7452 30.1467 63.1919 30.68 62.4185 31.08ZM62.1985 15.52C62.1985 15.1733 62.3319 14.8867 62.5985 14.66C62.8785 14.4333 63.1785 14.32 63.4985 14.32C63.8185 14.32 64.1052 14.4333 64.3585 14.66C64.6252 14.8867 64.7585 15.1733 64.7585 15.52C64.7585 15.8667 64.6252 16.1533 64.3585 16.38C64.1052 16.5933 63.8185 16.7 63.4985 16.7C63.1785 16.7 62.8785 16.5867 62.5985 16.36C62.3319 16.1333 62.1985 15.8533 62.1985 15.52ZM67.6068 18.54H69.8468V27H67.6068V18.54ZM67.5068 15.52C67.5068 15.1733 67.6401 14.8867 67.9068 14.66C68.1868 14.4333 68.4868 14.32 68.8068 14.32C69.1268 14.32 69.4135 14.4333 69.6668 14.66C69.9335 14.8867 70.0668 15.1733 70.0668 15.52C70.0668 15.8667 69.9335 16.1533 69.6668 16.38C69.4135 16.5933 69.1268 16.7 68.8068 16.7C68.4868 16.7 68.1868 16.5867 67.9068 16.36C67.6401 16.1333 67.5068 15.8533 67.5068 15.52ZM74.9393 18.54L75.1393 20.36L75.0593 20.12C75.3526 19.5333 75.786 19.0667 76.3593 18.72C76.946 18.36 77.6393 18.18 78.4393 18.18C79.2393 18.18 79.8993 18.4133 80.4193 18.88C80.9393 19.3467 81.206 19.96 81.2193 20.72V27H78.9793V21.52C78.966 21.0933 78.846 20.7533 78.6193 20.5C78.3926 20.2333 78.0326 20.0933 77.5393 20.08C77.086 20.08 76.6793 20.22 76.3193 20.5C75.9593 20.7667 75.6726 21.14 75.4593 21.62C75.2593 22.0867 75.1593 22.6267 75.1593 23.24V27H72.9193V18.54H74.9393ZM84.306 27V11.4H86.506V20.4L86.466 20.06C86.7594 19.5133 87.1927 19.0667 87.766 18.72C88.3394 18.36 89.026 18.18 89.826 18.18C90.626 18.18 91.286 18.4133 91.806 18.88C92.326 19.3467 92.5927 19.96 92.606 20.72V27H90.366V21.52C90.3527 21.0933 90.2327 20.7533 90.006 20.5C89.7794 20.2333 89.4194 20.0933 88.926 20.08C88.4727 20.08 88.066 20.22 87.706 20.5C87.346 20.78 87.0594 21.16 86.846 21.64C86.646 22.1067 86.546 22.64 86.546 23.24V27H84.306ZM99.2527 27.22C98.4527 27.22 97.7261 27.0533 97.0727 26.72C96.4327 26.3867 95.9261 25.8933 95.5527 25.24C95.1794 24.5733 94.9927 23.7533 94.9927 22.78C94.9927 21.82 95.1861 21 95.5727 20.32C95.9727 19.6267 96.4927 19.0933 97.1327 18.72C97.7861 18.3467 98.4927 18.16 99.2527 18.16C100.066 18.16 100.719 18.32 101.213 18.64C101.719 18.96 102.113 19.34 102.393 19.78L102.273 20.1L102.493 18.54H104.553V27H102.313V24.94L102.533 25.48C102.479 25.56 102.373 25.6933 102.213 25.88C102.053 26.0533 101.833 26.2467 101.553 26.46C101.273 26.6733 100.939 26.8533 100.553 27C100.179 27.1467 99.7461 27.22 99.2527 27.22ZM99.8727 25.38C100.273 25.38 100.633 25.3067 100.953 25.16C101.286 25.0133 101.566 24.8067 101.793 24.54C102.033 24.2733 102.206 23.9533 102.313 23.58V21.74C102.206 21.3933 102.033 21.0933 101.793 20.84C101.553 20.5733 101.259 20.3667 100.913 20.22C100.579 20.0733 100.206 20 99.7927 20C99.3394 20 98.9194 20.1133 98.5327 20.34C98.1461 20.5667 97.8327 20.88 97.5927 21.28C97.3661 21.68 97.2527 22.14 97.2527 22.66C97.2527 23.1667 97.3727 23.6267 97.6127 24.04C97.8527 24.4533 98.1727 24.78 98.5727 25.02C98.9727 25.26 99.4061 25.38 99.8727 25.38Z" fill="#275845"/>
</svg>
