<svg width="22" height="22" viewBox="0 0 22 22" fill="none" xmlns="http://www.w3.org/2000/svg">
<path d="M17.1875 8.9375C17.1875 7.29647 16.5356 5.72266 15.3752 4.56228C14.2148 3.4019 12.641 2.75 11 2.75C9.35897 2.75 7.78516 3.4019 6.62478 4.56228C5.4644 5.72266 4.8125 7.29647 4.8125 8.9375C4.8125 11.4757 6.84337 14.784 11 18.7467C15.1566 14.784 17.1875 11.4757 17.1875 8.9375ZM11 20.625C5.95788 16.0421 3.4375 12.1454 3.4375 8.9375C3.4375 6.9318 4.23426 5.00825 5.65251 3.59001C7.07075 2.17176 8.9943 1.375 11 1.375C13.0057 1.375 14.9293 2.17176 16.3475 3.59001C17.7657 5.00825 18.5625 6.9318 18.5625 8.9375C18.5625 12.1454 16.0421 16.0421 11 20.625Z" fill="#53B38D"/>
<path d="M11 9.625C11.3647 9.625 11.7144 9.48013 11.9723 9.22227C12.2301 8.96441 12.375 8.61467 12.375 8.25C12.375 7.88533 12.2301 7.53559 11.9723 7.27773C11.7144 7.01987 11.3647 6.875 11 6.875C10.6353 6.875 10.2856 7.01987 10.0277 7.27773C9.76987 7.53559 9.625 7.88533 9.625 8.25C9.625 8.61467 9.76987 8.96441 10.0277 9.22227C10.2856 9.48013 10.6353 9.625 11 9.625ZM11 11C10.2707 11 9.57118 10.7103 9.05546 10.1945C8.53973 9.67882 8.25 8.97935 8.25 8.25C8.25 7.52065 8.53973 6.82118 9.05546 6.30546C9.57118 5.78973 10.2707 5.5 11 5.5C11.7293 5.5 12.4288 5.78973 12.9445 6.30546C13.4603 6.82118 13.75 7.52065 13.75 8.25C13.75 8.97935 13.4603 9.67882 12.9445 10.1945C12.4288 10.7103 11.7293 11 11 11ZM18.425 15.125L20.625 20.625H14.4375V19.25H7.5625V20.625H1.375L3.575 15.125H18.425ZM16.9441 15.125H5.05588L3.40587 19.25H18.5941L16.9441 15.125Z" fill="#53B38D"/>
</svg>
