<svg width="33" height="33" viewBox="0 0 33 33" fill="none" xmlns="http://www.w3.org/2000/svg">
<g clip-path="url(#clip0_116_407)">
<path d="M32.5 28.9902C32.5 30.0511 32.0786 31.0685 31.3284 31.8187C30.5783 32.5688 29.5609 32.9902 28.5 32.9902H4.5C3.43913 32.9902 2.42172 32.5688 1.67157 31.8187C0.921427 31.0685 0.5 30.0511 0.5 28.9902V4.99023C0.5 3.92937 0.921427 2.91195 1.67157 2.16181C2.42172 1.41166 3.43913 0.990234 4.5 0.990234L28.5 0.990234C29.5609 0.990234 30.5783 1.41166 31.3284 2.16181C32.0786 2.91195 32.5 3.92937 32.5 4.99023V28.9902ZM23.5 15.9902H11.914L16.208 11.6982C16.3958 11.5105 16.5013 11.2558 16.5013 10.9902C16.5013 10.7247 16.3958 10.47 16.208 10.2822C16.0202 10.0945 15.7656 9.98897 15.5 9.98897C15.2344 9.98897 14.9798 10.0945 14.792 10.2822L8.792 16.2822C8.69887 16.3751 8.62499 16.4855 8.57457 16.607C8.52416 16.7285 8.49821 16.8587 8.49821 16.9902C8.49821 17.1218 8.52416 17.252 8.57457 17.3735C8.62499 17.495 8.69887 17.6053 8.792 17.6982L14.792 23.6982C14.9798 23.886 15.2344 23.9915 15.5 23.9915C15.7656 23.9915 16.0202 23.886 16.208 23.6982C16.3958 23.5105 16.5013 23.2558 16.5013 22.9902C16.5013 22.7247 16.3958 22.47 16.208 22.2822L11.914 17.9902H23.5C23.7652 17.9902 24.0196 17.8849 24.2071 17.6973C24.3946 17.5098 24.5 17.2555 24.5 16.9902C24.5 16.725 24.3946 16.4707 24.2071 16.2831C24.0196 16.0956 23.7652 15.9902 23.5 15.9902Z" fill="#53B38D"/>
</g>
<defs>
<clipPath id="clip0_116_407">
<rect width="32" height="32" fill="white" transform="translate(0.5 0.990234)"/>
</clipPath>
</defs>
</svg>
