<svg width="33" height="33" viewBox="0 0 33 33" fill="none" xmlns="http://www.w3.org/2000/svg">
<g clip-path="url(#clip0_116_414)">
<path d="M0.5 28.9902C0.5 30.0511 0.921427 31.0685 1.67157 31.8187C2.42172 32.5688 3.43913 32.9902 4.5 32.9902H28.5C29.5609 32.9902 30.5783 32.5688 31.3284 31.8187C32.0786 31.0685 32.5 30.0511 32.5 28.9902V4.99023C32.5 3.92937 32.0786 2.91195 31.3284 2.16181C30.5783 1.41166 29.5609 0.990234 28.5 0.990234L4.5 0.990234C3.43913 0.990234 2.42172 1.41166 1.67157 2.16181C0.921427 2.91195 0.5 3.92937 0.5 4.99023L0.5 28.9902ZM9.5 15.9902H21.086L16.792 11.6982C16.6042 11.5105 16.4987 11.2558 16.4987 10.9902C16.4987 10.7247 16.6042 10.47 16.792 10.2822C16.9798 10.0945 17.2344 9.98897 17.5 9.98897C17.7656 9.98897 18.0202 10.0945 18.208 10.2822L24.208 16.2822C24.3011 16.3751 24.375 16.4855 24.4254 16.607C24.4758 16.7285 24.5018 16.8587 24.5018 16.9902C24.5018 17.1218 24.4758 17.252 24.4254 17.3735C24.375 17.495 24.3011 17.6053 24.208 17.6982L18.208 23.6982C18.0202 23.886 17.7656 23.9915 17.5 23.9915C17.2344 23.9915 16.9798 23.886 16.792 23.6982C16.6042 23.5105 16.4987 23.2558 16.4987 22.9902C16.4987 22.7247 16.6042 22.47 16.792 22.2822L21.086 17.9902H9.5C9.23478 17.9902 8.98043 17.8849 8.79289 17.6973C8.60536 17.5098 8.5 17.2555 8.5 16.9902C8.5 16.725 8.60536 16.4707 8.79289 16.2831C8.98043 16.0956 9.23478 15.9902 9.5 15.9902Z" fill="#53B38D"/>
</g>
<defs>
<clipPath id="clip0_116_414">
<rect width="32" height="32" fill="white" transform="translate(0.5 0.990234)"/>
</clipPath>
</defs>
</svg>
